<?xml version="1.0" encoding="UTF-8" standalone="no"?>
<!DOCTYPE svg PUBLIC "-//W3C//DTD SVG 1.1//EN"
        "http://www.w3.org/Graphics/SVG/1.1/DTD/svg11.dtd">
<!-- Generated by graphviz version 2.43.0 (0)
 -->
<!-- Title: parse_tree Pages: 1 -->
<svg width="215pt" height="291pt"
     viewBox="0.00 0.00 215.09 291.00" xmlns="http://www.w3.org/2000/svg">
    <g id="graph0" class="graph" transform="scale(1 1) rotate(0) translate(4 287)">
        <title>parse_tree</title>
        <polygon fill="white" stroke="transparent" points="-4,4 -4,-287 211.09,-287 211.09,4 -4,4"/>
        <!-- n_0 -->
        <g id="node1" class="node">
            <title>n_0</title>
            <ellipse fill="none" stroke="black" cx="49.64" cy="-105" rx="34.39" ry="18"/>
            <text text-anchor="middle" x="49.64" y="-101.3" font-family="Times,serif" font-size="14.00">Var a</text>
        </g>
        <!-- n_1 -->
        <g id="node2" class="node">
            <title>n_1</title>
            <ellipse fill="none" stroke="black" cx="84.64" cy="-18" rx="35.19" ry="18"/>
            <text text-anchor="middle" x="84.64" y="-14.3" font-family="Times,serif" font-size="14.00">Var b</text>
        </g>
        <!-- n_2 -->
        <g id="node3" class="node">
            <title>n_2</title>
            <ellipse fill="none" stroke="black" cx="172.64" cy="-18" rx="34.39" ry="18"/>
            <text text-anchor="middle" x="172.64" y="-14.3" font-family="Times,serif" font-size="14.00">Var c</text>
        </g>
        <!-- n_3 -->
        <g id="node4" class="node">
            <title>n_3</title>
            <ellipse fill="none" stroke="black" cx="128.64" cy="-105" rx="27" ry="18"/>
            <text text-anchor="middle" x="128.64" y="-101.3" font-family="Times,serif" font-size="14.00">Xor</text>
        </g>
        <!-- n_3&#45;&gt;n_1 -->
        <g id="edge1" class="edge">
            <title>n_3&#45;&gt;n_1</title>
            <path fill="none" stroke="black" d="M120.16,-87.61C113.87,-75.46 105.17,-58.66 97.96,-44.73"/>
            <polygon fill="black" stroke="black" points="100.96,-42.9 93.25,-35.63 94.74,-46.12 100.96,-42.9"/>
            <text text-anchor="middle" x="114.64" y="-57.8" font-family="Times,serif" font-size="14.00">L</text>
        </g>
        <!-- n_3&#45;&gt;n_2 -->
        <g id="edge2" class="edge">
            <title>n_3&#45;&gt;n_2</title>
            <path fill="none" stroke="black" d="M137.13,-87.61C143.42,-75.46 152.11,-58.66 159.33,-44.73"/>
            <polygon fill="black" stroke="black" points="162.55,-46.12 164.04,-35.63 156.33,-42.9 162.55,-46.12"/>
            <text text-anchor="middle" x="159.14" y="-57.8" font-family="Times,serif" font-size="14.00">R</text>
        </g>
        <!-- n_4 -->
        <g id="node5" class="node">
            <title>n_4</title>
            <ellipse fill="none" stroke="black" cx="65.64" cy="-192" rx="27" ry="18"/>
            <text text-anchor="middle" x="65.64" y="-188.3" font-family="Times,serif" font-size="14.00">Or</text>
        </g>
        <!-- n_4&#45;&gt;n_0 -->
        <g id="edge3" class="edge">
            <title>n_4&#45;&gt;n_0</title>
            <path fill="none" stroke="black" d="M62.41,-173.8C60.22,-162.16 57.28,-146.55 54.77,-133.24"/>
            <polygon fill="black" stroke="black" points="58.17,-132.36 52.88,-123.18 51.29,-133.65 58.17,-132.36"/>
            <text text-anchor="middle" x="63.64" y="-144.8" font-family="Times,serif" font-size="14.00">L</text>
        </g>
        <!-- n_4&#45;&gt;n_3 -->
        <g id="edge4" class="edge">
            <title>n_4&#45;&gt;n_3</title>
            <path fill="none" stroke="black" d="M77.2,-175.41C86.7,-162.59 100.32,-144.22 111.15,-129.6"/>
            <polygon fill="black" stroke="black" points="114.02,-131.61 117.16,-121.49 108.4,-127.44 114.02,-131.61"/>
            <text text-anchor="middle" x="107.14" y="-144.8" font-family="Times,serif" font-size="14.00">R</text>
        </g>
        <!-- n_5 -->
        <g id="node6" class="node">
            <title>n_5</title>
            <ellipse fill="none" stroke="black" cx="65.64" cy="-265" rx="65.79" ry="18"/>
            <text text-anchor="middle" x="65.64" y="-261.3" font-family="Times,serif" font-size="14.00">Exists [b, c]
            </text>
        </g>
        <!-- n_5&#45;&gt;n_4 -->
        <g id="edge5" class="edge">
            <title>n_5&#45;&gt;n_4</title>
            <path fill="none" stroke="black" d="M65.64,-246.81C65.64,-238.79 65.64,-229.05 65.64,-220.07"/>
            <polygon fill="black" stroke="black" points="69.14,-220.03 65.64,-210.03 62.14,-220.03 69.14,-220.03"/>
        </g>
    </g>
</svg>
